<svg width="512" height="512" viewBox="0 0 512 512" fill="none" xmlns="http://www.w3.org/2000/svg">
<path d="M272.187 277.328C314.782 297.191 358.744 307.049 395.901 305.113C396.126 305.098 396.343 305.075 396.564 305.064L399.231 40.9594C399.325 31.6216 388.904 26.0107 381.162 31.2321L159.005 181.114C176.999 215.405 218.564 252.318 272.187 277.328Z" fill="black"/>
<path d="M386.62 330.471C347.867 330.471 303.92 319.841 261.568 300.094C203.147 272.848 159.207 233.991 138.089 195.224L25.1319 271.432C16.3072 277.384 19.5023 291.086 30.0538 292.52L219.744 318.316C230.906 319.833 241.143 325.343 248.559 333.823L374.585 477.925C381.589 485.941 394.789 481.057 394.897 470.415L396.313 330.22C393.118 330.374 389.893 330.471 386.62 330.471Z" fill="black"/>
<path d="M386.62 310.469C347.864 310.469 303.916 299.839 261.568 280.092C161.93 233.624 104.318 153.385 130.422 97.4173C156.521 41.45 255.02 34.0074 354.662 80.4758C387.26 95.6793 416.806 115.393 440.096 137.488C445.134 142.264 445.343 150.212 440.568 155.246C435.792 160.277 427.844 160.486 422.814 155.714C401.456 135.462 374.222 117.314 344.043 103.242C260.066 64.0812 172.661 66.2724 153.188 108.033C133.714 149.793 188.206 218.162 272.187 257.326C314.782 277.189 358.718 287.066 395.901 285.107C430.245 283.313 454.089 271.743 463.042 252.535C472.387 232.507 463.349 209.637 454.123 193.972C450.599 187.998 452.592 180.297 458.566 176.776C464.544 173.255 472.245 175.244 475.766 181.222C493.134 210.708 496.704 239.804 485.811 263.154C472.739 291.183 441.276 307.888 397.212 310.196C393.736 310.379 390.197 310.469 386.62 310.469Z" fill="black"/>
</svg>
